<?xml version="1.0" standalone="no"?>
<!DOCTYPE svg PUBLIC "-//W3C//DTD SVG 20010904//EN"
 "http://www.w3.org/TR/2001/REC-SVG-20010904/DTD/svg10.dtd">
<svg version="1.0" xmlns="http://www.w3.org/2000/svg"
 width="810.000000pt" height="1363.000000pt" viewBox="0 0 810.000000 1363.000000"
 preserveAspectRatio="xMidYMid meet">

<g transform="translate(0.000000,1363.000000) scale(0.100000,-0.100000)"
fill="#000000" stroke="none">
<path d="M375 13608 c-11 -7 -40 -15 -65 -19 -45 -7 -90 -20 -145 -45 -16 -7
-52 -22 -79 -33 -145 -62 -76 -157 173 -241 78 -26 153 -23 256 10 112 35 138
36 163 6 24 -31 70 -169 82 -246 5 -30 20 -104 34 -163 28 -120 36 -274 17
-320 -13 -34 6 -123 44 -197 13 -25 26 -64 30 -86 4 -21 16 -52 28 -68 22 -32
25 -113 6 -172 -16 -50 12 -106 71 -144 54 -35 70 -66 70 -139 1 -25 9 -64 20
-86 30 -62 26 -97 -20 -157 -22 -29 -40 -58 -40 -64 0 -6 -14 -38 -31 -70 -16
-32 -41 -95 -55 -139 -14 -47 -34 -89 -48 -101 -14 -13 -26 -40 -30 -66 -4
-25 -17 -54 -32 -69 -17 -18 -26 -42 -31 -80 -3 -30 -22 -87 -41 -126 -32 -69
-36 -73 -68 -73 -41 0 -47 -9 -31 -49 11 -29 10 -34 -7 -47 -11 -8 -37 -14
-57 -14 -21 0 -40 -4 -43 -9 -3 -5 19 -49 49 -100 86 -142 107 -195 97 -250
-7 -43 -10 -46 -42 -51 -30 -4 -38 -12 -61 -60 -19 -38 -60 -87 -133 -160 -58
-58 -106 -110 -106 -117 0 -6 -10 -15 -22 -18 -13 -4 -34 -17 -48 -29 -14 -12
-38 -30 -53 -40 -25 -15 -28 -22 -24 -54 3 -21 8 -46 11 -57 5 -15 0 -24 -24
-37 -28 -16 -31 -22 -29 -61 2 -32 -4 -56 -24 -89 -18 -31 -29 -72 -38 -134
-6 -49 -18 -104 -25 -123 -9 -21 -14 -74 -14 -146 0 -103 2 -115 25 -146 13
-19 32 -47 41 -64 9 -16 30 -47 47 -67 25 -31 31 -50 38 -121 5 -46 18 -106
30 -133 18 -43 20 -60 14 -134 -4 -49 -15 -104 -27 -130 -45 -104 -49 -177
-28 -525 15 -241 15 -257 0 -390 -14 -120 -17 -590 -5 -719 5 -53 3 -98 -5
-135 -13 -60 -56 -179 -71 -197 -32 -39 -61 -193 -61 -324 0 -113 27 -318 55
-415 79 -276 96 -351 107 -460 6 -49 15 -121 21 -160 5 -38 14 -95 18 -125 5
-30 21 -109 36 -175 31 -139 42 -204 55 -335 9 -90 17 -143 40 -270 18 -99 30
-202 39 -363 6 -86 13 -162 16 -168 4 -5 11 -56 16 -112 9 -102 19 -175 40
-317 15 -97 16 -1179 1 -1340 -12 -133 -14 -141 -75 -465 -31 -162 -40 -266
-27 -313 18 -66 78 -131 159 -174 40 -21 81 -38 90 -38 9 0 25 -6 36 -14 11
-7 44 -16 73 -19 29 -3 62 -13 74 -22 28 -19 83 -19 134 -1 22 7 61 16 89 21
27 4 58 13 69 21 11 8 31 14 44 14 13 0 44 14 69 30 24 17 50 30 58 30 44 0
150 142 161 215 3 24 1 81 -6 127 -7 46 -16 110 -20 143 -4 33 -13 78 -20 100
-47 162 -62 351 -45 580 6 83 4 100 -24 197 -17 58 -31 120 -31 137 0 37 34
95 88 148 21 21 51 61 67 88 54 96 76 109 131 80 21 -11 62 -15 152 -15 l124
0 56 -43 c93 -70 129 -87 181 -87 45 0 51 -4 137 -81 l89 -81 107 4 c68 2 112
8 120 16 19 19 257 16 282 -3 14 -11 45 -15 103 -15 51 0 95 -5 111 -14 15 -7
61 -16 102 -20 63 -5 81 -3 112 13 46 23 118 34 138 21 18 -11 27 -112 38
-460 6 -183 5 -259 -5 -300 -43 -194 -40 -665 7 -869 9 -41 9 -72 1 -135 -7
-44 -14 -96 -16 -114 -9 -73 59 -212 103 -212 8 0 29 -15 46 -33 55 -58 126
-107 156 -107 15 0 33 -7 40 -15 9 -11 33 -15 85 -15 52 0 76 -4 85 -15 7 -8
22 -15 34 -15 12 0 31 -7 42 -15 13 -10 45 -14 109 -14 64 0 96 4 109 14 11 8
28 15 38 15 9 0 32 15 50 32 50 50 114 98 130 98 18 0 95 53 121 82 44 51 2
311 -64 394 -16 20 -32 49 -35 63 -8 36 -63 150 -90 186 -23 31 -121 307 -136
385 -24 127 -31 201 -31 370 0 277 23 420 67 420 28 0 115 51 134 78 11 15 48
115 83 222 61 190 64 196 113 245 28 28 65 57 81 65 51 25 103 69 126 108 13
20 47 63 76 95 29 32 53 62 53 67 0 15 197 160 217 160 10 0 27 -7 37 -15 16
-12 63 -15 247 -15 125 0 230 -4 233 -8 3 -5 45 -28 93 -51 48 -24 95 -47 103
-52 8 -5 22 -12 30 -15 8 -3 22 -10 30 -15 8 -5 25 -13 37 -19 12 -5 41 -23
64 -40 23 -16 51 -30 63 -30 12 0 30 -7 40 -15 11 -8 32 -15 47 -15 14 0 32
-7 39 -15 8 -10 30 -15 64 -15 32 0 61 -6 75 -16 14 -10 52 -19 95 -22 39 -3
80 -11 91 -18 11 -8 35 -14 55 -14 19 0 44 -7 54 -15 11 -8 31 -15 45 -15 14
-1 37 -7 51 -15 14 -8 35 -14 48 -15 12 0 39 -9 59 -20 21 -11 52 -20 69 -20
17 0 37 -7 44 -15 7 -8 25 -15 40 -15 15 0 33 -7 40 -15 9 -11 36 -15 109 -15
68 -1 102 -5 115 -15 29 -22 452 -21 480 0 11 8 36 15 56 15 19 0 44 6 55 14
11 7 36 16 56 19 21 3 56 19 79 36 24 17 49 31 56 31 7 0 16 15 19 33 9 46 1
729 -8 747 -10 18 -73 60 -91 60 -8 0 -19 7 -26 15 -7 8 -21 15 -32 15 -20 0
-32 5 -115 48 -23 12 -55 22 -70 22 -31 0 -159 28 -184 40 -8 4 -47 20 -85 35
-72 28 -123 51 -334 153 -69 33 -136 63 -150 67 -14 4 -34 14 -45 21 -11 8
-29 14 -40 14 -11 0 -29 7 -39 15 -11 8 -36 15 -56 15 -20 0 -41 5 -47 11 -6
6 -82 12 -194 15 -158 3 -188 7 -221 24 -21 11 -47 20 -57 20 -10 0 -24 7 -31
15 -7 8 -24 15 -39 15 -14 0 -35 7 -45 15 -11 8 -39 15 -62 15 -42 0 -64 12
-129 70 -31 27 -119 60 -162 60 -35 0 -75 24 -113 66 -32 37 -32 38 -25 109
l6 71 -43 54 c-24 29 -49 61 -57 72 -21 28 -18 123 6 203 21 70 33 126 51 240
10 59 5 109 -21 220 -6 28 -11 84 -10 125 2 63 -5 96 -38 205 -23 72 -51 155
-64 185 -12 30 -51 123 -85 205 -34 83 -75 170 -91 195 -55 88 -78 194 -59
270 6 25 16 97 21 160 5 63 14 165 19 225 6 61 14 196 18 300 4 105 12 196 17
204 4 8 12 83 17 165 5 83 11 189 14 236 5 72 3 88 -10 99 -17 14 -31 7 -116
-59 -14 -11 -39 -23 -56 -26 -71 -14 -98 73 -114 366 -6 102 -13 202 -16 223
-8 52 13 134 48 184 15 23 53 64 84 90 31 26 64 57 73 68 9 11 35 38 57 61 23
23 46 49 51 58 10 18 2 90 -20 181 -8 33 -18 77 -22 99 -4 25 -21 54 -49 85
l-43 46 -12 117 c-13 135 -24 166 -60 174 -67 14 -96 52 -161 213 -25 60 -29
64 -80 85 -57 23 -92 67 -105 133 -3 18 -18 42 -32 53 -26 20 -26 21 -10 49
30 52 17 101 -26 101 -15 0 -18 5 -13 20 3 11 9 29 12 40 6 18 2 20 -42 20
-41 0 -54 5 -95 40 -33 28 -57 40 -78 40 -41 0 -40 12 10 98 35 60 85 197 92
252 1 9 -9 16 -27 20 -45 8 -52 28 -38 110 15 90 15 183 0 198 -7 7 -20 12
-29 12 -14 0 -17 11 -17 68 -1 74 -26 208 -43 229 -7 7 -20 13 -31 13 -27 0
-56 17 -68 40 -8 15 -5 37 11 92 22 72 55 118 83 118 8 0 26 14 40 32 14 19
41 37 63 43 33 10 38 15 36 38 -1 15 -11 40 -22 56 -24 33 -27 94 -8 127 7 12
44 47 84 78 39 31 73 59 75 63 1 5 32 31 68 59 57 46 70 63 110 144 24 51 63
113 85 138 48 53 57 53 150 -4 105 -64 329 -177 365 -185 19 -4 50 -13 67 -20
24 -10 36 -10 44 -2 17 17 4 43 -52 103 -28 30 -64 78 -80 105 -28 48 -29 55
-29 181 0 171 -12 212 -83 282 -40 40 -63 54 -93 59 -21 3 -51 12 -66 19 -15
8 -44 14 -65 14 -21 1 -49 7 -63 15 -14 8 -50 14 -81 15 -31 0 -70 7 -85 15
-16 8 -41 15 -55 15 -14 0 -34 7 -45 15 -10 8 -29 15 -42 15 -12 0 -39 9 -59
20 -32 17 -57 20 -164 20 -120 0 -128 1 -185 30 -32 17 -76 44 -97 61 -31 25
-48 31 -98 33 -55 2 -65 0 -104 -31 -24 -18 -48 -33 -53 -33 -5 0 -16 -10 -24
-22 -14 -20 -22 -22 -84 -20 -62 3 -82 10 -208 73 -76 38 -148 69 -160 69 -11
1 -32 7 -46 15 -14 8 -42 14 -63 15 -21 0 -54 7 -74 15 -25 11 -72 15 -160 15
-91 0 -132 4 -153 15 -16 8 -58 18 -92 21 -35 3 -79 12 -100 21 -52 22 -543
13 -603 -10 -22 -9 -60 -16 -85 -17 -25 0 -54 -7 -64 -15 -11 -8 -34 -15 -51
-15 -17 0 -40 -7 -51 -15 -12 -9 -43 -14 -87 -15 l-68 0 -85 82 c-47 46 -97
102 -111 125 -35 60 -79 83 -159 83 -39 0 -87 8 -121 20 -32 11 -79 20 -106
20 -26 0 -60 6 -75 14 -15 7 -68 15 -117 18 -64 3 -98 9 -115 21 -14 9 -43 17
-66 17 -23 0 -58 7 -77 15 -46 19 -450 21 -482 3z m3312 -3634 c3 -9 0 -20 -8
-25 -14 -8 -31 18 -22 34 7 12 23 8 30 -9z m207 -71 c2 -10 -1 -24 -7 -31 -7
-9 -7 -16 1 -24 6 -6 8 -16 3 -22 -9 -12 -27 -81 -36 -141 -4 -22 -11 -46 -17
-52 -6 -7 -8 -19 -5 -28 4 -8 2 -17 -3 -20 -6 -4 -10 -19 -10 -34 0 -15 -4
-31 -10 -37 -5 -5 -11 -20 -13 -33 -2 -13 -11 -29 -20 -36 -48 -35 -74 -182
-62 -349 7 -87 9 -95 41 -128 30 -33 32 -36 14 -41 -15 -4 -20 -14 -20 -37 0
-24 -11 -42 -47 -78 -58 -58 -161 -122 -196 -122 -30 0 -44 -16 -49 -55 -2
-17 -11 -34 -23 -40 -52 -26 -95 -58 -95 -70 0 -19 -26 -26 -57 -14 -18 7 -30
6 -37 -1 -24 -24 -86 3 -86 37 0 8 18 35 39 61 27 32 41 61 46 92 4 25 14 58
22 73 7 15 16 58 20 95 3 37 11 74 17 82 23 28 46 95 51 145 8 72 13 84 52
122 20 21 32 41 29 50 -3 8 -2 12 2 10 14 -9 52 13 52 29 0 9 25 41 55 72 30
31 55 61 55 66 0 6 6 23 14 37 18 35 40 128 38 161 -2 19 6 32 28 48 29 21 30
23 30 106 0 46 3 84 7 84 3 0 14 -7 24 -16 25 -22 71 -10 111 29 37 36 38 36
42 10z m226 -3513 c0 -5 -4 -11 -10 -11 -5 -1 -16 -2 -22 -3 -19 -3 -29 4 -23
15 8 12 55 12 55 -1z"/>
<path d="M3300 8659 c0 -5 5 -7 10 -4 6 3 10 8 10 11 0 2 -4 4 -10 4 -5 0 -10
-5 -10 -11z"/>
</g>
</svg>
